<?xml version="1.0" standalone="no"?>
<!DOCTYPE svg PUBLIC "-//W3C//DTD SVG 20010904//EN"
 "http://www.w3.org/TR/2001/REC-SVG-20010904/DTD/svg10.dtd">
<svg version="1.0" xmlns="http://www.w3.org/2000/svg"
 width="960.000000pt" height="960.000000pt" viewBox="0 0 960.000000 960.000000"
 preserveAspectRatio="xMidYMid meet">
<metadata>
Created by potrace 1.14, written by Peter Selinger 2001-2017
</metadata>
<g transform="translate(0.000000,960.000000) scale(0.100000,-0.100000)"
fill="#000000" stroke="none">
<path d="M7378 8805 c-2 -3 -45 -7 -94 -10 -79 -4 -117 -10 -217 -30 -79 -16
-337 -128 -337 -147 0 -4 -5 -8 -10 -8 -9 0 -65 -35 -80 -50 -3 -3 -27 -23
-54 -45 -27 -21 -68 -59 -90 -84 -23 -24 -46 -49 -51 -55 -6 -6 -26 -31 -45
-56 -19 -25 -39 -48 -45 -52 -5 -4 -6 -8 -1 -8 5 0 3 -8 -5 -17 -28 -36 -102
-180 -102 -200 0 -7 -4 -13 -9 -13 -4 0 -7 -3 -6 -7 1 -5 -8 -41 -21 -81 -12
-41 -26 -99 -31 -130 -5 -32 -12 -77 -16 -102 -4 -25 -6 -54 -5 -65 3 -25 4
-53 2 -85 -1 -14 1 -47 4 -75 4 -27 7 -60 7 -72 0 -13 3 -23 7 -23 3 0 7 -19
8 -42 2 -23 7 -46 13 -52 5 -5 10 -22 10 -37 0 -15 5 -31 10 -34 6 -3 10 -15
10 -25 0 -24 114 -250 140 -278 11 -12 20 -24 20 -28 0 -4 7 -14 15 -23 16
-18 60 -68 91 -103 11 -12 44 -43 74 -68 29 -25 61 -52 70 -60 21 -19 38 -30
131 -83 64 -37 117 -61 234 -103 60 -21 185 -45 262 -49 40 -2 77 -6 83 -10 5
-3 10 -3 10 2 0 4 25 8 55 7 47 -1 104 5 192 21 59 10 205 61 275 95 67 33
182 103 198 120 3 3 30 25 60 50 30 25 68 60 85 79 16 19 39 44 50 55 20 21
34 39 82 111 41 60 113 196 117 219 1 6 4 16 8 21 17 28 57 183 62 241 2 17 5
35 8 40 2 5 4 30 4 57 -1 26 1 47 4 47 3 0 4 15 3 32 -1 18 -2 33 -3 33 -1 0
-3 32 -6 71 -3 60 -14 124 -39 228 -24 101 -120 306 -167 356 -10 10 -18 23
-18 27 0 4 -20 30 -45 58 -25 27 -53 59 -63 70 -70 77 -193 168 -310 228 -89
47 -242 103 -304 112 -58 9 -102 14 -155 19 -28 2 -56 7 -61 10 -5 3 -11 3
-14 1z"/>
<path d="M3783 8642 c-19 -3 -42 -32 -25 -32 4 0 6 -35 5 -77 -2 -43 -2 -127
-2 -188 0 -60 0 -114 0 -120 -2 -42 -2 -117 -2 -215 0 -63 0 -122 -1 -130 0
-8 0 -46 1 -85 0 -38 1 -88 0 -110 0 -22 0 -92 0 -155 0 -63 0 -122 -1 -130 0
-8 0 -46 1 -85 1 -71 3 -418 2 -445 0 -8 0 -64 0 -125 0 -60 0 -114 0 -120 -2
-42 -2 -117 -2 -215 0 -63 0 -122 -1 -130 0 -8 0 -46 1 -85 0 -38 1 -88 0
-110 0 -22 0 -92 0 -155 0 -63 0 -122 -1 -130 0 -8 0 -46 1 -85 0 -38 1 -88 0
-110 0 -22 0 -92 0 -155 0 -63 0 -122 -1 -130 0 -8 0 -46 1 -85 0 -38 1 -88 0
-110 0 -22 0 -92 0 -155 0 -63 0 -122 -1 -130 0 -8 0 -46 1 -85 0 -38 1 -88 0
-110 0 -22 0 -92 0 -155 0 -63 0 -122 -1 -130 0 -8 0 -46 1 -85 0 -38 1 -88 0
-110 0 -22 0 -92 0 -155 0 -63 0 -122 -1 -130 0 -8 0 -46 1 -85 0 -38 1 -88 0
-110 0 -22 0 -92 0 -155 0 -63 0 -122 0 -130 0 -131 0 -163 2 -207 0 -19 1
-231 0 -248 -2 -42 -2 -117 -2 -215 0 -63 0 -122 -1 -130 0 -8 0 -46 1 -85 0
-38 1 -88 0 -110 -1 -88 0 -283 2 -325 0 -25 1 -52 1 -60 -4 -91 -1 -403 3
-410 4 -6 1 -10 -5 -10 -6 0 -9 -4 -5 -9 4 -8 5 -46 4 -176 -2 -149 0 -358 4
-442 0 -12 27 -19 52 -13 36 7 43 7 55 0 8 -5 21 -5 30 0 9 5 22 5 30 0 8 -5
21 -5 30 0 9 5 22 5 30 0 8 -5 21 -5 31 1 11 6 20 5 24 -1 3 -6 15 -6 29 0 13
5 26 6 29 3 8 -8 97 -9 97 -1 0 4 13 3 30 -2 17 -5 32 -5 35 0 3 5 15 6 28 1
13 -5 30 -5 38 -1 8 5 21 5 29 0 7 -4 24 -4 36 0 14 6 26 5 29 -1 4 -5 11 -7
16 -3 14 8 99 10 99 2 0 -4 13 -3 30 2 16 5 30 6 30 2 0 -8 68 -7 76 1 3 3 17
2 30 -3 15 -6 24 -6 24 0 0 6 9 6 25 0 14 -5 27 -5 30 0 3 5 18 5 35 0 17 -5
30 -5 30 0 0 5 13 5 30 0 17 -5 30 -5 30 0 0 5 12 5 28 1 15 -5 37 -4 50 0 13
5 22 4 22 -1 0 -6 9 -6 23 -1 13 5 29 6 35 2 7 -4 35 -4 62 -1 28 4 50 3 50
-1 0 -4 14 -4 30 1 17 5 30 5 30 0 0 -5 13 -5 30 0 17 5 30 5 30 0 0 -5 13 -5
30 0 18 5 30 5 30 0 0 -6 10 -6 25 0 15 6 25 6 25 0 0 -5 12 -5 30 0 16 5 32
5 35 0 8 -14 45 1 46 19 0 9 0 34 0 56 -2 54 -1 115 0 174 1 27 -1 54 -5 60
-4 6 -2 11 4 11 6 0 8 5 5 11 -4 6 -7 33 -6 60 1 27 1 71 2 98 1 27 -2 54 -5
60 -4 5 -2 12 3 16 6 3 7 15 2 28 -4 12 -5 33 -1 47 4 14 3 36 0 50 -4 14 -4
34 0 45 4 11 4 29 0 40 -4 11 -4 32 0 46 4 15 4 32 0 39 -5 7 -5 23 0 34 4 12
4 30 1 41 -4 11 -6 31 -4 45 6 50 6 118 -1 129 -4 6 -2 11 4 11 6 0 8 5 5 10
-8 14 -10 108 -3 116 4 3 2 18 -2 34 -4 16 -6 31 -3 34 8 8 7 102 -1 115 -4 6
-2 11 4 11 6 0 8 5 5 11 -4 6 -7 34 -6 62 3 120 2 149 -3 154 -2 3 -1 15 3 27
5 11 5 30 1 41 -4 11 -4 32 0 46 4 15 4 32 0 39 -5 7 -5 23 0 34 4 12 4 30 0
41 -4 11 -4 29 0 40 4 11 4 30 -1 42 -5 13 -4 25 2 28 5 4 6 11 3 17 -4 6 -6
30 -5 54 3 125 3 142 -3 153 -4 6 -2 11 4 11 6 0 8 5 5 11 -4 6 -7 32 -6 57 3
132 3 151 -3 161 -4 5 -2 12 3 16 6 3 7 15 2 28 -5 12 -5 33 -1 47 3 14 4 36
0 50 -4 14 -4 34 0 45 4 11 4 29 0 40 -4 11 -4 32 0 46 4 15 4 32 0 39 -5 7
-5 23 0 34 4 12 4 30 1 41 -4 11 -6 31 -4 45 6 50 6 118 -1 129 -4 6 -2 11 4
11 6 0 8 5 5 10 -8 14 -10 108 -3 116 4 3 2 18 -2 34 -4 16 -6 31 -3 34 8 8 7
102 -1 115 -4 6 -2 11 4 11 6 0 8 5 5 11 -4 6 -7 32 -6 57 3 132 3 151 -3 161
-4 5 -2 12 4 16 6 4 7 11 4 17 -4 6 -6 30 -5 54 3 125 3 142 -3 153 -4 6 -2
11 4 11 6 0 8 5 5 11 -4 6 -7 33 -6 60 1 27 1 71 2 98 1 27 -2 54 -5 60 -4 5
-2 12 3 16 6 3 7 15 2 28 -4 12 -4 36 -1 52 3 17 3 40 -1 52 -5 13 -4 25 2 28
5 4 6 11 3 17 -4 6 -6 30 -5 54 3 125 3 142 -3 153 -4 6 -2 11 4 11 6 0 8 5 5
11 -4 6 -7 33 -6 60 1 27 1 71 2 98 1 27 -2 54 -5 60 -4 5 -2 12 3 16 6 3 7
15 2 28 -4 12 -4 36 -1 52 3 17 3 40 -1 52 -5 13 -4 25 2 28 5 4 6 11 3 17 -4
6 -6 30 -5 54 3 125 3 142 -3 153 -4 6 -2 11 4 11 6 0 8 5 5 11 -4 6 -7 32 -6
57 3 132 3 151 -3 161 -4 5 -2 12 3 16 6 3 7 15 2 28 -4 12 -4 36 -1 52 3 17
3 40 -1 52 -5 13 -4 25 2 28 5 4 6 11 3 17 -4 6 -6 30 -5 54 3 125 3 142 -3
153 -4 6 -2 11 4 11 6 0 8 5 5 11 -4 6 -7 33 -6 60 1 27 1 71 2 98 1 27 -2 54
-5 60 -4 5 -2 12 3 16 6 3 7 15 2 28 -4 12 -4 36 -1 52 3 17 3 40 -1 52 -5 13
-4 25 2 28 5 4 6 11 3 17 -4 6 -6 30 -5 54 3 125 3 142 -3 153 -4 6 -2 11 4
11 6 0 8 5 5 11 -4 6 -7 33 -6 60 1 27 1 71 2 98 1 27 -2 54 -5 60 -4 5 -2 12
3 16 6 3 7 15 2 28 -4 12 -4 36 -1 52 3 17 3 40 -1 52 -5 13 -4 25 2 28 5 4 6
11 3 17 -4 6 -6 30 -5 54 3 125 3 142 -3 153 -4 6 -2 11 4 11 6 0 8 5 5 11 -4
6 -7 32 -6 57 3 132 3 151 -3 161 -4 5 -2 12 3 16 6 3 7 15 2 28 -4 12 -4 36
-1 52 3 17 3 40 -1 52 -5 13 -4 25 2 28 5 4 6 11 3 17 -6 9 -8 77 -4 103 8 47
0 100 -15 111 -10 8 -23 10 -28 7 -13 -8 -86 -8 -94 0 -3 4 -13 2 -22 -3 -10
-5 -23 -5 -31 0 -8 5 -21 5 -30 0 -9 -5 -22 -5 -30 0 -8 5 -21 5 -30 0 -9 -5
-22 -5 -30 0 -8 5 -21 5 -31 -1 -11 -6 -20 -5 -24 1 -3 5 -15 6 -29 0 -12 -4
-29 -4 -36 0 -8 5 -21 5 -30 0 -9 -5 -22 -5 -30 0 -8 5 -21 5 -30 0 -9 -5 -22
-5 -30 0 -8 5 -21 5 -31 -1 -11 -6 -20 -5 -24 1 -3 6 -15 6 -29 0 -13 -5 -26
-6 -29 -3 -8 8 -97 9 -97 1 0 -4 -13 -3 -30 2 -17 5 -32 5 -35 0 -3 -5 -15 -6
-28 -1 -13 5 -30 5 -38 1 -8 -5 -21 -5 -29 0 -7 4 -24 4 -36 0 -14 -6 -26 -5
-29 1 -4 5 -11 7 -16 3 -15 -9 -80 -11 -85 -2 -3 4 -16 3 -29 -2 -15 -6 -27
-6 -30 0 -3 5 -15 6 -28 1 -12 -5 -34 -5 -49 0 -16 4 -28 4 -28 -1 0 -5 -13
-5 -30 0 -17 5 -30 5 -30 0 0 -5 -13 -5 -30 0 -18 5 -30 5 -30 0 0 -6 -10 -6
-25 0 -15 6 -27 6 -30 0 -3 -6 -15 -6 -29 0 -13 5 -27 6 -30 3 -8 -8 -76 -9
-76 -1 0 4 -13 3 -30 -2 -16 -5 -30 -5 -30 0 0 4 -15 4 -34 0 -18 -4 -40 -4
-47 -1 -8 4 -24 5 -36 3z"/>
<path d="M2078 3365 c-3 -3 -38 -7 -79 -10 -102 -6 -175 -19 -274 -50 -33 -10
-62 -19 -65 -19 -18 -3 -210 -101 -210 -108 0 -4 -6 -8 -14 -8 -7 0 -24 -10
-37 -22 -14 -13 -27 -23 -31 -23 -3 0 -34 -25 -68 -55 -34 -30 -67 -59 -73
-65 -26 -22 -115 -134 -151 -188 -79 -122 -159 -316 -170 -417 -1 -9 -4 -20
-7 -25 -21 -40 -17 -358 5 -455 7 -29 16 -70 19 -85 2 -5 5 -14 8 -20 4 -5 9
-23 13 -39 8 -32 36 -97 74 -171 45 -87 45 -88 80 -129 6 -8 12 -20 12 -26 0
-17 247 -260 264 -260 8 0 16 -4 18 -9 4 -13 175 -111 191 -111 7 0 17 -4 22
-9 9 -8 147 -60 160 -61 3 0 6 0 8 -1 43 -13 150 -30 219 -34 42 -3 81 -5 85
-6 4 -1 10 0 13 1 3 1 32 3 65 4 312 14 648 183 841 423 21 26 41 50 44 53 14
14 50 70 50 79 0 5 4 11 9 13 12 4 78 138 107 216 52 136 73 272 69 442 -2 74
-6 146 -9 160 -4 14 -9 39 -11 56 -12 87 -124 358 -170 411 -29 34 -35 43 -35
47 0 11 -103 129 -149 170 -19 17 -41 39 -50 49 -8 9 -21 17 -27 17 -7 0 -14
7 -18 15 -3 8 -10 15 -16 15 -6 0 -20 8 -30 18 -60 56 -326 171 -432 187 -61
10 -103 14 -167 20 -35 3 -67 7 -71 10 -4 2 -9 2 -12 0z"/>
</g>
</svg>
