<svg xmlns="http://www.w3.org/2000/svg" viewBox="0 0 1024 240"><defs><style>.cls-1{fill:#0a265d;}</style></defs><g id="Logo"><rect id="rectangle" class="cls-1" x="84" y="24" width="44" height="192"/><circle id="circle-top" class="cls-1" cx="174" cy="50" r="30"/><circle id="circle-bottom" class="cls-1" cx="42" cy="186" r="30"/></g><g id="Text"><path class="cls-1" d="M306.82,119.6768H296.1646v-8.7691h-.2222q-7.4378,10.3228-21.7559,10.3228-13.7651,0-22.8662-9.1573t-9.102-22.9213q0-13.8744,9.0468-23.2544t22.9214-9.38a29.6145,29.6145,0,0,1,11.71,2.3867,23.09,23.09,0,0,1,9.1577,6.8267h.2217V37.5366H306.82ZM296.1646,89.0405A21.8841,21.8841,0,0,0,290.17,73.39a20.175,20.175,0,0,0-15.3179-6.3266,19.8,19.8,0,0,0-15.0405,6.438,21.8762,21.8762,0,0,0-6.0493,15.5395,21.3583,21.3583,0,0,0,6.105,15.2071,19.7178,19.7178,0,0,0,14.874,6.4379,20.5031,20.5031,0,0,0,15.207-6.3266A21.0579,21.0579,0,0,0,296.1646,89.0405Z"/><path class="cls-1" d="M384.8535,88.7075a31.1968,31.1968,0,0,1-9.6572,22.9219,33.5028,33.5028,0,0,1-46.9531,0,31.2712,31.2712,0,0,1-9.7681-23.1436,30.0085,30.0085,0,0,1,9.8237-22.7,34.0817,34.0817,0,0,1,46.7866.0557A30.3892,30.3892,0,0,1,384.8535,88.7075Zm-17.8711,15.4849a21.42,21.42,0,0,0,6.3267-15.4849,21.6449,21.6449,0,1,0-43.29.1113,21.23,21.23,0,0,0,6.3267,15.4288,21.3787,21.3787,0,0,0,30.6362-.0552Z"/><path class="cls-1" d="M419.5947,68.7275h-10.101v50.9493H397.95V68.7275h-8.3252V58.1826H397.95V37.5366h11.544v20.646h10.101Z"/><path class="cls-1" d="M471.875,43.6973q7.9914,6.16,7.9922,18.7036T471.875,81.1045q-7.9922,6.16-20.979,6.16H439.13v32.4122H427.1416v-82.14H450.896Q463.8826,37.5366,471.875,43.6973ZM463.106,72.89q4.7709-3.3845,4.7729-10.4892,0-7.1024-4.7729-10.49-4.774-3.3844-12.21-3.3852H439.13v27.75H450.896Q458.3308,76.2759,463.106,72.89Z"/><path class="cls-1" d="M516.0518,68.3945a16.9215,16.9215,0,0,0-8.3252,2.22q-6.772,3.4417-6.7705,15.4292v33.6329h-11.545V58.1826h10.7676v5.55H500.4q4.8837-6.8811,15.6514-7.2153Z"/><path class="cls-1" d="M587.2021,88.7075a31.1978,31.1978,0,0,1-9.6562,22.9219,33.5028,33.5028,0,0,1-46.9531,0,31.27,31.27,0,0,1-9.7686-23.1436,30.0078,30.0078,0,0,1,9.8233-22.7,34.0823,34.0823,0,0,1,46.7871.0557A30.389,30.389,0,0,1,587.2021,88.7075Zm-17.871,15.4849a21.4168,21.4168,0,0,0,6.3271-15.4849,21.6451,21.6451,0,1,0-43.29.1113,21.23,21.23,0,0,0,6.3271,15.4288,21.3782,21.3782,0,0,0,30.6358-.0552Z"/><path class="cls-1" d="M611.9541,119.3438q0,4.995-.2773,7.5478a19.6379,19.6379,0,0,1-1.7207,5.7725,16.8954,16.8954,0,0,1-4.5508,5.8828q-6.1054,5.3276-12.6543,5.3281v-12.1a8.3708,8.3708,0,0,0,3.7744-.999,7.13,7.13,0,0,0,2.2754-1.8868,7.7407,7.7407,0,0,0,1.11-2.997,23.7926,23.7926,0,0,0,.4434-3.1631q.0557-1.1661.0557-3.7188V58.1826h11.5439Zm0-68.2652H600.41V37.5366h11.5439Z"/><path class="cls-1" d="M686.3232,88.1528a50.3572,50.3572,0,0,1-.333,5.772H635.041a22.3908,22.3908,0,0,0,7.27,12.0435,19.2152,19.2152,0,0,0,12.9317,4.7172,20.2812,20.2812,0,0,0,10.2675-2.7749,18.0678,18.0678,0,0,0,7.27-7.5478h11.544a32.0809,32.0809,0,0,1-11.544,15.1514,30.1588,30.1588,0,0,1-17.9824,5.7163,29.403,29.403,0,0,1-22.1445-9.6568,31.9817,31.9817,0,0,1-9.1572-22.7549,31.7264,31.7264,0,0,1,9.1015-22.8662,31.1591,31.1591,0,0,1,44.5664-.1108A30.7181,30.7181,0,0,1,686.3232,88.1528Zm-11.5439-3.1079A17.8482,17.8482,0,0,0,668.3965,72.28a20.0407,20.0407,0,0,0-26.9727,0,17.8338,17.8338,0,0,0-6.3828,12.7651Z"/><path class="cls-1" d="M756.4746,99.3638a32.0876,32.0876,0,0,1-11.6,15.9287,30.9576,30.9576,0,0,1-18.7031,5.938,29.908,29.908,0,0,1-22.5332-9.3794,32.017,32.017,0,0,1-8.9912-23.0323,31.7728,31.7728,0,0,1,9.0468-22.9213,30.0923,30.0923,0,0,1,22.5879-9.38,31.9291,31.9291,0,0,1,18.9258,6.2163,27.8816,27.8816,0,0,1,11.2666,15.873H743.71q-5.5518-11.5437-17.3164-11.5439-9.2139,0-14.7071,6.2158-5.4946,6.2175-5.4951,15.54a22.9217,22.9217,0,0,0,5.4951,15.4844,18.1746,18.1746,0,0,0,14.4854,6.3823,18.5466,18.5466,0,0,0,10.4336-2.9965,19.376,19.376,0,0,0,6.9931-8.3252Z"/><path class="cls-1" d="M790.4414,68.7275H780.3408v50.9493H768.7959V68.7275h-8.3242V58.1826h8.3242V37.5366h11.5449v20.646h10.1006Z"/><path class="cls-1" d="M817.5244,119.6768H805.9805v-13.542h11.5439Z"/><path class="cls-1" d="M889.0078,119.6768H877.4629V86.2656q0-19.2018-15.3174-19.2026-8.1034,0-12.1543,5.3833-4.0532,5.3855-4.0517,13.7085v33.522h-11.544V58.1826h10.7666v6.5493h.2227q6.2137-8.2134,17.9814-8.2143,14.7612,0,21.7559,10.9892,3.8847,5.9941,3.8857,15.7618Z"/><path class="cls-1" d="M963.4883,88.1528a50.3572,50.3572,0,0,1-.333,5.772H912.2061a22.3908,22.3908,0,0,0,7.27,12.0435,19.2147,19.2147,0,0,0,12.9316,4.7172,20.2815,20.2815,0,0,0,10.2676-2.7749,18.0684,18.0684,0,0,0,7.27-7.5478H961.49a32.0813,32.0813,0,0,1-11.5439,15.1514,30.159,30.159,0,0,1-17.9824,5.7163,29.4032,29.4032,0,0,1-22.1446-9.6568,31.9817,31.9817,0,0,1-9.1572-22.7549,31.726,31.726,0,0,1,9.1016-22.8662,31.1591,31.1591,0,0,1,44.5664-.1108A30.7185,30.7185,0,0,1,963.4883,88.1528Zm-11.544-3.1079A17.8478,17.8478,0,0,0,945.5615,72.28a20.0406,20.0406,0,0,0-26.9726,0,17.8334,17.8334,0,0,0-6.3828,12.7651Z"/><path class="cls-1" d="M998.0088,68.7275H987.9082v50.9493H976.3633V68.7275h-8.3242V58.1826h8.3242V37.5366h11.5449v20.646h10.1006Z"/><path class="cls-1" d="M283.1846,189.0771h-18.62v22.4h-7.56v-51.8h26.18v6.93h-18.62v15.54h18.62Z"/><path class="cls-1" d="M344.9243,176.2676q0,11.4111-9.8,14.91a14.9836,14.9836,0,0,1-5.04.98l14.49,19.32h-9.45l-17.08-24.01h-.14v24.01h-7.56v-51.8h16.03q9.3794,0,13.79,4.34Q344.9238,168.5689,344.9243,176.2676Zm-7.56,0a8.4141,8.4141,0,0,0-3.3247-7.1748,13.2405,13.2405,0,0,0-8.1553-2.4854h-7.98V186.418h5.18a26.4833,26.4833,0,0,0,5.11-.4551,18.4752,18.4752,0,0,0,4.48-1.5049,7.9826,7.9826,0,0,0,3.43-3.15A9.622,9.622,0,0,0,337.3643,176.2676Z"/><path class="cls-1" d="M399.4536,211.4775h-27.93v-51.8h27.93v6.93h-20.37v15.26h20.37v6.9307h-20.37v15.75h20.37Z"/><path class="cls-1" d="M455.4531,211.4775h-27.93v-51.8h27.93v6.93h-20.37v15.26h20.37v6.9307h-20.37v15.75h20.37Z"/><path class="cls-1" d="M538.6123,196.7773a15.108,15.108,0,0,1-4.4805,11.3057,15.6547,15.6547,0,0,1-11.41,4.375,15.2631,15.2631,0,0,1-11.5147-4.62,16.1751,16.1751,0,0,1-4.4453-11.69h7.5606a10.11,10.11,0,0,0,2.2392,6.6855,7.5763,7.5763,0,0,0,6.16,2.6943,7.8377,7.8377,0,0,0,6.09-2.45,8.9717,8.9717,0,0,0,2.24-6.3,8.13,8.13,0,0,0-.5948-3.2548,5.5441,5.5441,0,0,0-1.75-2.24,14.7371,14.7371,0,0,0-2.45-1.5049q-1.2963-.63-2.9052-1.26-.4189-.1392-.63-.21-2.7291-1.05-3.9551-1.5752t-3.3252-1.5752a12.0512,12.0512,0,0,1-3.08-2.0293,22.5534,22.5534,0,0,1-2.1-2.4853,9.21,9.21,0,0,1-1.5747-3.4649,19.4985,19.4985,0,0,1-.4551-4.41,13.3185,13.3185,0,0,1,4.2349-10.01,14.2794,14.2794,0,0,1,10.2549-4.06,14.877,14.877,0,0,1,10.6748,3.955,13.7627,13.7627,0,0,1,4.165,10.4649h-7.56a7.5608,7.5608,0,0,0-1.96-5.4248,6.9881,6.9881,0,0,0-5.32-2.0645,6.595,6.595,0,0,0-4.8643,2.1,6.8469,6.8469,0,0,0-2.0654,4.97,5.6342,5.6342,0,0,0,1.26,3.7451,9.0523,9.0523,0,0,0,3.2548,2.415,43.0241,43.0241,0,0,0,4.4454,1.7149,43.2031,43.2031,0,0,1,4.9,1.96,21.9743,21.9743,0,0,1,4.4444,2.7657,11.546,11.546,0,0,1,3.2549,4.55A17.4827,17.4827,0,0,1,538.6123,196.7773Z"/><path class="cls-1" d="M618.6211,185.7178a25.6433,25.6433,0,0,1-7.9092,18.8994,26.9974,26.9974,0,1,1,7.9092-18.8994Zm-7.56.0693a20.0816,20.0816,0,0,0-5.53-14.2793,18.23,18.23,0,0,0-13.8593-5.88,18.5622,18.5622,0,0,0-10.6055,3.08,19.2363,19.2363,0,0,0-6.9648,8.6094,20.6661,20.6661,0,0,0-1.82,8.26,21.6531,21.6531,0,0,0,1.82,8.4,19.5107,19.5107,0,0,0,7.0351,8.5049,19.7894,19.7894,0,0,0,21.63-.35,19.7029,19.7029,0,0,0,6.9648-9.415A19.0458,19.0458,0,0,0,611.0615,185.7871Z"/><path class="cls-1" d="M673.6416,189.0771h-18.62v22.4h-7.5606v-51.8h26.1807v6.93h-18.62v15.54h18.62Z"/><path class="cls-1" d="M726.2109,166.6074h-9.9394v44.87h-7.5606v-44.87h-9.9394v-6.93h27.4394Z"/><path class="cls-1" d="M810.7,159.6777l-14.49,51.8h-6.6495l-9.38-36.19H780.04l-9.38,36.19h-6.6495l-14.49-51.8h7.84l9.87,38.99h.14l10.0108-38.99H782.91l9.87,38.71h.14l10.08-38.71Z"/><path class="cls-1" d="M880.49,211.4775h-8.05l-5.74-15.26H848.08l-5.74,15.26H834.36l19.67-51.8h6.79Zm-16.38-22.19-6.58-19.81h-.14l-6.65,19.81Z"/><path class="cls-1" d="M942.0889,176.2676q0,11.4111-9.8,14.91a14.9837,14.9837,0,0,1-5.04.98l14.49,19.32h-9.45l-17.08-24.01h-.14v24.01h-7.5605v-51.8h16.03q9.3794,0,13.79,4.34Q942.0885,168.5689,942.0889,176.2676Zm-7.56,0a8.4145,8.4145,0,0,0-3.3252-7.1748,13.24,13.24,0,0,0-8.1553-2.4854h-7.98V186.418h5.18a26.4868,26.4868,0,0,0,5.11-.4551,18.48,18.48,0,0,0,4.4795-1.5049,7.9814,7.9814,0,0,0,3.43-3.15A9.6128,9.6128,0,0,0,934.5293,176.2676Z"/><path class="cls-1" d="M998.6494,211.4775H970.7188v-51.8h27.9306v6.93h-20.37v15.26h20.37v6.9307h-20.37v15.75h20.37Z"/></g></svg>